<svg width="1414" height="482" viewBox="0 0 1414 482" fill="none" xmlns="http://www.w3.org/2000/svg">
<g filter="url(#filter0_d_2066_2)">
<path d="M563.262 373.459H536.79V350.017L549.07 337.738H595.954L608.074 349.857V393.233L595.954 405.353H567.568L563.422 408.702V425.606H581.442V413.646H608.074V449.367H536.79V393.871L548.91 381.752H577.296L581.442 378.403V364.848L577.296 361.499H567.409L563.262 364.848V373.459ZM636.993 337.738L683.877 337.578L696.156 349.857V436.928L683.877 449.208H636.993L624.873 437.088V349.857L636.993 337.738ZM669.525 425.447V361.339H651.505V425.447H669.525ZM739.747 373.459H713.275V350.017L725.554 337.738H772.438L784.558 349.857V393.233L772.438 405.353H744.052L739.906 408.702V425.606H757.926V413.646H784.558V449.367H713.275V393.871L725.394 381.752H753.78L757.926 378.403V364.848L753.78 361.499H743.893L739.747 364.848V373.459ZM801.357 413.646H827.829V422.257L831.976 425.606H841.863L846.009 422.257V408.702L841.863 405.353H801.357V337.738H872.641V373.459H846.009V361.499H827.989V381.752H860.521L872.641 393.871V437.247L860.521 449.367H813.637L801.357 437.088V413.646Z" fill="#970088"/>
</g>
<g filter="url(#filter1_d_2066_2)">
<mask id="path-2-outside-1_2066_2" maskUnits="userSpaceOnUse" x="733.41" y="93.3564" width="156" height="240" fill="black">
<rect fill="white" x="733.41" y="93.3564" width="156" height="240"/>
<path d="M762.698 98.3092L859.738 97.9792L885.153 123.394V303.611L859.738 329.026H762.698L737.613 303.941V123.394L762.698 98.3092ZM830.032 272.915V154.091L821.45 147.159H800.986L792.404 154.091V272.915L800.986 279.846H821.45L830.032 272.915Z"/>
</mask>
<path d="M762.698 98.3092L859.738 97.9792L885.153 123.394V303.611L859.738 329.026H762.698L737.613 303.941V123.394L762.698 98.3092ZM830.032 272.915V154.091L821.45 147.159H800.986L792.404 154.091V272.915L800.986 279.846H821.45L830.032 272.915Z" fill="url(#paint0_linear_2066_2)"/>
<path d="M762.698 98.3092L762.684 94.2643L761.017 94.27L759.838 95.449L762.698 98.3092ZM859.738 97.9792L862.598 95.1189L861.408 93.9285L859.724 93.9342L859.738 97.9792ZM885.153 123.394H889.198V121.719L888.013 120.534L885.153 123.394ZM885.153 303.611L888.013 306.471L889.198 305.287V303.611H885.153ZM859.738 329.026V333.071H861.413L862.598 331.887L859.738 329.026ZM762.698 329.026L759.838 331.887L761.023 333.071H762.698V329.026ZM737.613 303.941H733.568V305.617L734.753 306.801L737.613 303.941ZM737.613 123.394L734.753 120.534L733.568 121.719V123.394H737.613ZM830.032 272.915L832.573 276.062L834.077 274.847V272.915H830.032ZM830.032 154.091H834.077V152.158L832.573 150.944L830.032 154.091ZM821.45 147.159L823.992 144.012L822.879 143.114H821.45V147.159ZM800.986 147.159V143.114H799.556L798.444 144.012L800.986 147.159ZM792.404 154.091L789.862 150.944L788.359 152.158V154.091H792.404ZM792.404 272.915H788.359V274.847L789.862 276.062L792.404 272.915ZM800.986 279.846L798.444 282.993L799.556 283.891H800.986V279.846ZM821.45 279.846V283.891H822.879L823.992 282.993L821.45 279.846ZM762.712 102.354L859.752 102.024L859.724 93.9342L762.684 94.2643L762.712 102.354ZM856.878 100.839L882.293 126.255L888.013 120.534L862.598 95.1189L856.878 100.839ZM881.108 123.394V303.611H889.198V123.394H881.108ZM882.293 300.751L856.878 326.166L862.598 331.887L888.013 306.471L882.293 300.751ZM859.738 324.981H762.698V333.071H859.738V324.981ZM765.558 326.166L740.473 301.081L734.753 306.801L759.838 331.887L765.558 326.166ZM741.658 303.941V123.394H733.568V303.941H741.658ZM740.473 126.255L765.558 101.169L759.838 95.449L734.753 120.534L740.473 126.255ZM834.077 272.915V154.091H825.987V272.915H834.077ZM832.573 150.944L823.992 144.012L818.908 150.306L827.49 157.237L832.573 150.944ZM821.45 143.114H800.986V151.204H821.45V143.114ZM798.444 144.012L789.862 150.944L794.946 157.237L803.527 150.306L798.444 144.012ZM788.359 154.091V272.915H796.449V154.091H788.359ZM789.862 276.062L798.444 282.993L803.527 276.7L794.946 269.768L789.862 276.062ZM800.986 283.891H821.45V275.801H800.986V283.891ZM823.992 282.993L832.573 276.062L827.49 269.768L818.908 276.7L823.992 282.993Z" fill="url(#paint1_linear_2066_2)" mask="url(#path-2-outside-1_2066_2)"/>
</g>
<g filter="url(#filter2_d_2066_2)">
<path d="M1401.78 85.6455L1117.24 85.1801V278.541H1131.1V327.721H1048.26V278.541H1062.12V220.78L1017.23 327.721H985.873L940.984 220.78V339.215H954.847V388.396H872V339.215H885.863V145.854H872V96.6742H944.285L1001.39 209.052L1058.49 36L1401.78 36.4655V85.6455Z" fill="url(#paint2_linear_2066_2)"/>
<path d="M1401.78 87.668L1403.81 87.6713V85.6455V36.4655V34.4458L1401.79 34.443L1058.49 33.9775L1057.03 33.9755L1056.57 35.3663L1000.99 203.804L946.088 95.758L945.526 94.6517H944.285H872H869.978V96.6742V145.854V147.877H872H883.84V337.193H872H869.978V339.215V388.396V390.418H872H954.847H956.869V388.396V339.215V337.193H954.847H943.007V230.823L984.008 328.504L984.529 329.744H985.873H1017.23H1018.57L1019.09 328.504L1060.1 230.823V276.519H1048.26H1046.23V278.541V327.721V329.744H1048.26H1131.1H1133.13V327.721V278.541V276.519H1131.1H1119.26V87.2058L1401.78 87.668Z" stroke="url(#paint3_linear_2066_2)" stroke-width="4.04494"/>
</g>
<g filter="url(#filter3_d_2066_2)">
<mask id="path-6-outside-2_2066_2" maskUnits="userSpaceOnUse" x="527.117" y="93.3564" width="188" height="241" fill="black">
<rect fill="white" x="527.117" y="93.3564" width="188" height="241"/>
<path d="M710.547 98.3092V147.489H696.684V280.176H710.547V329.356H627.7V280.176H641.562V238.258H600.304V280.176H614.167V329.356H531.32V280.176H545.183V147.489H531.32V98.3092H614.167V147.489H600.304V189.408H641.562V147.489H627.7V98.3092H710.547Z"/>
</mask>
<path d="M710.547 98.3092V147.489H696.684V280.176H710.547V329.356H627.7V280.176H641.562V238.258H600.304V280.176H614.167V329.356H531.32V280.176H545.183V147.489H531.32V98.3092H614.167V147.489H600.304V189.408H641.562V147.489H627.7V98.3092H710.547Z" fill="url(#paint4_linear_2066_2)"/>
<path d="M710.547 98.3092H714.591V94.2643H710.547V98.3092ZM710.547 147.489V151.534H714.591V147.489H710.547ZM696.684 147.489V143.444H692.639V147.489H696.684ZM696.684 280.176H692.639V284.221H696.684V280.176ZM710.547 280.176H714.591V276.131H710.547V280.176ZM710.547 329.356V333.401H714.591V329.356H710.547ZM627.7 329.356H623.655V333.401H627.7V329.356ZM627.7 280.176V276.131H623.655V280.176H627.7ZM641.562 280.176V284.221H645.607V280.176H641.562ZM641.562 238.258H645.607V234.213H641.562V238.258ZM600.304 238.258V234.213H596.259V238.258H600.304ZM600.304 280.176H596.259V284.221H600.304V280.176ZM614.167 280.176H618.212V276.131H614.167V280.176ZM614.167 329.356V333.401H618.212V329.356H614.167ZM531.32 329.356H527.275V333.401H531.32V329.356ZM531.32 280.176V276.131H527.275V280.176H531.32ZM545.183 280.176V284.221H549.228V280.176H545.183ZM545.183 147.489H549.228V143.444H545.183V147.489ZM531.32 147.489H527.275V151.534H531.32V147.489ZM531.32 98.3092V94.2643H527.275V98.3092H531.32ZM614.167 98.3092H618.212V94.2643H614.167V98.3092ZM614.167 147.489V151.534H618.212V147.489H614.167ZM600.304 147.489V143.444H596.259V147.489H600.304ZM600.304 189.408H596.259V193.453H600.304V189.408ZM641.562 189.408V193.453H645.607V189.408H641.562ZM641.562 147.489H645.607V143.444H641.562V147.489ZM627.7 147.489H623.655V151.534H627.7V147.489ZM627.7 98.3092V94.2643H623.655V98.3092H627.7ZM706.502 98.3092V147.489H714.591V98.3092H706.502ZM710.547 143.444H696.684V151.534H710.547V143.444ZM692.639 147.489V280.176H700.729V147.489H692.639ZM696.684 284.221H710.547V276.131H696.684V284.221ZM706.502 280.176V329.356H714.591V280.176H706.502ZM710.547 325.312H627.7V333.401H710.547V325.312ZM631.745 329.356V280.176H623.655V329.356H631.745ZM627.7 284.221H641.562V276.131H627.7V284.221ZM645.607 280.176V238.258H637.517V280.176H645.607ZM641.562 234.213H600.304V242.303H641.562V234.213ZM596.259 238.258V280.176H604.349V238.258H596.259ZM600.304 284.221H614.167V276.131H600.304V284.221ZM610.122 280.176V329.356H618.212V280.176H610.122ZM614.167 325.312H531.32V333.401H614.167V325.312ZM535.365 329.356V280.176H527.275V329.356H535.365ZM531.32 284.221H545.183V276.131H531.32V284.221ZM549.228 280.176V147.489H541.138V280.176H549.228ZM545.183 143.444H531.32V151.534H545.183V143.444ZM535.365 147.489V98.3092H527.275V147.489H535.365ZM531.32 102.354H614.167V94.2643H531.32V102.354ZM610.122 98.3092V147.489H618.212V98.3092H610.122ZM614.167 143.444H600.304V151.534H614.167V143.444ZM596.259 147.489V189.408H604.349V147.489H596.259ZM600.304 193.453H641.562V185.363H600.304V193.453ZM645.607 189.408V147.489H637.517V189.408H645.607ZM641.562 143.444H627.7V151.534H641.562V143.444ZM631.745 147.489V98.3092H623.655V147.489H631.745ZM627.7 102.354H710.547V94.2643H627.7V102.354Z" fill="url(#paint5_linear_2066_2)" mask="url(#path-6-outside-2_2066_2)"/>
</g>
<g filter="url(#filter4_d_2066_2)">
<mask id="path-8-outside-3_2066_2" maskUnits="userSpaceOnUse" x="1114" y="97" width="92" height="241" fill="black">
<rect fill="white" x="1114" y="97" width="92" height="241"/>
<path d="M1201.05 151.133H1187.19V283.82H1201.05V333H1118.2V283.82H1132.07V151.133H1118.2V101.953H1201.05V151.133Z"/>
</mask>
<path d="M1201.05 151.133H1187.19V283.82H1201.05V333H1118.2V283.82H1132.07V151.133H1118.2V101.953H1201.05V151.133Z" fill="url(#paint6_linear_2066_2)"/>
<path d="M1201.05 151.133V155.178H1205.09V151.133H1201.05ZM1187.19 151.133V147.088H1183.14V151.133H1187.19ZM1187.19 283.82H1183.14V287.865H1187.19V283.82ZM1201.05 283.82H1205.09V279.775H1201.05V283.82ZM1201.05 333V337.045H1205.09V333H1201.05ZM1118.2 333H1114.16V337.045H1118.2V333ZM1118.2 283.82V279.775H1114.16V283.82H1118.2ZM1132.07 283.82V287.865H1136.11V283.82H1132.07ZM1132.07 151.133H1136.11V147.088H1132.07V151.133ZM1118.2 151.133H1114.16V155.178H1118.2V151.133ZM1118.2 101.953V97.9078H1114.16V101.953H1118.2ZM1201.05 101.953H1205.09V97.9078H1201.05V101.953ZM1201.05 147.088H1187.19V155.178H1201.05V147.088ZM1183.14 151.133V283.82H1191.23V151.133H1183.14ZM1187.19 287.865H1201.05V279.775H1187.19V287.865ZM1197 283.82V333H1205.09V283.82H1197ZM1201.05 328.955H1118.2V337.045H1201.05V328.955ZM1122.25 333V283.82H1114.16V333H1122.25ZM1118.2 287.865H1132.07V279.775H1118.2V287.865ZM1136.11 283.82V151.133H1128.02V283.82H1136.11ZM1132.07 147.088H1118.2V155.178H1132.07V147.088ZM1122.25 151.133V101.953H1114.16V151.133H1122.25ZM1118.2 105.998H1201.05V97.9078H1118.2V105.998ZM1197 101.953V151.133H1205.09V101.953H1197Z" fill="url(#paint7_linear_2066_2)" mask="url(#path-8-outside-3_2066_2)"/>
</g>
<g filter="url(#filter5_d_2066_2)">
<mask id="path-10-outside-4_2066_2" maskUnits="userSpaceOnUse" x="1194" y="97" width="170" height="241" fill="black">
<rect fill="white" x="1194" y="97" width="170" height="241"/>
<path d="M1359.61 175.888L1304.48 175.558V150.803H1267.19V192.721H1304.48V241.901H1267.19V283.82H1304.48V259.065H1359.61V333H1198.2V283.82H1212.07V151.133H1198.2V101.953H1359.61V175.888Z"/>
</mask>
<path d="M1359.61 175.888L1304.48 175.558V150.803H1267.19V192.721H1304.48V241.901H1267.19V283.82H1304.48V259.065H1359.61V333H1198.2V283.82H1212.07V151.133H1198.2V101.953H1359.61V175.888Z" fill="url(#paint8_linear_2066_2)"/>
<path d="M1359.61 175.888L1359.58 179.933L1363.65 179.957V175.888H1359.61ZM1304.48 175.558H1300.44V179.579L1304.46 179.603L1304.48 175.558ZM1304.48 150.803H1308.53V146.758H1304.48V150.803ZM1267.19 150.803V146.758H1263.14V150.803H1267.19ZM1267.19 192.721H1263.14V196.766H1267.19V192.721ZM1304.48 192.721H1308.53V188.676H1304.48V192.721ZM1304.48 241.901V245.946H1308.53V241.901H1304.48ZM1267.19 241.901V237.856H1263.14V241.901H1267.19ZM1267.19 283.82H1263.14V287.865H1267.19V283.82ZM1304.48 283.82V287.865H1308.53V283.82H1304.48ZM1304.48 259.065V255.02H1300.44V259.065H1304.48ZM1359.61 259.065H1363.65V255.02H1359.61V259.065ZM1359.61 333V337.045H1363.65V333H1359.61ZM1198.2 333H1194.16V337.045H1198.2V333ZM1198.2 283.82V279.775H1194.16V283.82H1198.2ZM1212.07 283.82V287.865H1216.11V283.82H1212.07ZM1212.07 151.133H1216.11V147.088H1212.07V151.133ZM1198.2 151.133H1194.16V155.178H1198.2V151.133ZM1198.2 101.953V97.9078H1194.16V101.953H1198.2ZM1359.61 101.953H1363.65V97.9078H1359.61V101.953ZM1359.63 171.843L1304.51 171.513L1304.46 179.603L1359.58 179.933L1359.63 171.843ZM1308.53 175.558V150.803H1300.44V175.558H1308.53ZM1304.48 146.758H1267.19V154.848H1304.48V146.758ZM1263.14 150.803V192.721H1271.23V150.803H1263.14ZM1267.19 196.766H1304.48V188.676H1267.19V196.766ZM1300.44 192.721V241.901H1308.53V192.721H1300.44ZM1304.48 237.856H1267.19V245.946H1304.48V237.856ZM1263.14 241.901V283.82H1271.23V241.901H1263.14ZM1267.19 287.865H1304.48V279.775H1267.19V287.865ZM1308.53 283.82V259.065H1300.44V283.82H1308.53ZM1304.48 263.11H1359.61V255.02H1304.48V263.11ZM1355.56 259.065V333H1363.65V259.065H1355.56ZM1359.61 328.955H1198.2V337.045H1359.61V328.955ZM1202.25 333V283.82H1194.16V333H1202.25ZM1198.2 287.865H1212.07V279.775H1198.2V287.865ZM1216.11 283.82V151.133H1208.02V283.82H1216.11ZM1212.07 147.088H1198.2V155.178H1212.07V147.088ZM1202.25 151.133V101.953H1194.16V151.133H1202.25ZM1198.2 105.998H1359.61V97.9078H1198.2V105.998ZM1355.56 101.953V175.888H1363.65V101.953H1355.56Z" fill="url(#paint9_linear_2066_2)" mask="url(#path-10-outside-4_2066_2)"/>
</g>
<g filter="url(#filter6_d_2066_2)">
<path d="M527.457 146.781H513.594V340.141H527.457V389.321H458.473L417.214 229.627V328.647H348.23V279.467H362.093V86.1062L16.5449 85.5365V36.3564L414.244 36.9262L458.473 203.222V97.6003H527.457V146.781Z" fill="url(#paint10_linear_2066_2)"/>
<path d="M527.457 148.803H529.479V146.781V97.6003V95.5778H527.457H458.473H456.45V97.6003V187.749L416.198 36.4063L415.799 34.9059L414.247 34.9037L16.5478 34.334L14.5224 34.3311V36.3564V85.5365V87.5557L16.5416 87.559L360.07 88.1253V277.445H348.23H346.208V279.467V328.647V330.67H348.23H417.214H419.237V328.647V245.54L456.515 389.827L456.906 391.344H458.473H527.457H529.479V389.321V340.141V338.119H527.457H515.617V148.803H527.457Z" stroke="url(#paint11_linear_2066_2)" stroke-width="4.04494"/>
</g>
<g filter="url(#filter7_d_2066_2)">
<mask id="path-14-outside-5_2066_2" maskUnits="userSpaceOnUse" x="199.477" y="93.3564" width="156" height="240" fill="black">
<rect fill="white" x="199.477" y="93.3564" width="156" height="240"/>
<path d="M228.764 98.3092L325.804 97.9792L351.219 123.394V303.611L325.804 329.026H228.764L203.679 303.941V123.394L228.764 98.3092ZM296.098 272.915V154.091L287.516 147.159H267.052L258.47 154.091V272.915L267.052 279.846H287.516L296.098 272.915Z"/>
</mask>
<path d="M228.764 98.3092L325.804 97.9792L351.219 123.394V303.611L325.804 329.026H228.764L203.679 303.941V123.394L228.764 98.3092ZM296.098 272.915V154.091L287.516 147.159H267.052L258.47 154.091V272.915L267.052 279.846H287.516L296.098 272.915Z" fill="url(#paint12_linear_2066_2)"/>
<path d="M228.764 98.3092L228.751 94.2643L227.083 94.27L225.904 95.449L228.764 98.3092ZM325.804 97.9792L328.664 95.1189L327.474 93.9285L325.79 93.9342L325.804 97.9792ZM351.219 123.394H355.264V121.719L354.08 120.534L351.219 123.394ZM351.219 303.611L354.08 306.471L355.264 305.287V303.611H351.219ZM325.804 329.026V333.071H327.48L328.664 331.887L325.804 329.026ZM228.764 329.026L225.904 331.887L227.089 333.071H228.764V329.026ZM203.679 303.941H199.634V305.617L200.819 306.801L203.679 303.941ZM203.679 123.394L200.819 120.534L199.634 121.719V123.394H203.679ZM296.098 272.915L298.64 276.062L300.143 274.847V272.915H296.098ZM296.098 154.091H300.143V152.158L298.64 150.944L296.098 154.091ZM287.516 147.159L290.058 144.012L288.946 143.114H287.516V147.159ZM267.052 147.159V143.114H265.623L264.511 144.012L267.052 147.159ZM258.47 154.091L255.929 150.944L254.426 152.158V154.091H258.47ZM258.47 272.915H254.426V274.847L255.929 276.062L258.47 272.915ZM267.052 279.846L264.511 282.993L265.623 283.891H267.052V279.846ZM287.516 279.846V283.891H288.946L290.058 282.993L287.516 279.846ZM228.778 102.354L325.818 102.024L325.79 93.9342L228.751 94.2643L228.778 102.354ZM322.944 100.839L348.359 126.255L354.08 120.534L328.664 95.1189L322.944 100.839ZM347.174 123.394V303.611H355.264V123.394H347.174ZM348.359 300.751L322.944 326.166L328.664 331.887L354.08 306.471L348.359 300.751ZM325.804 324.981H228.764V333.071H325.804V324.981ZM231.625 326.166L206.539 301.081L200.819 306.801L225.904 331.887L231.625 326.166ZM207.724 303.941V123.394H199.634V303.941H207.724ZM206.539 126.255L231.625 101.169L225.904 95.449L200.819 120.534L206.539 126.255ZM300.143 272.915V154.091H292.053V272.915H300.143ZM298.64 150.944L290.058 144.012L284.975 150.306L293.557 157.237L298.64 150.944ZM287.516 143.114H267.052V151.204H287.516V143.114ZM264.511 144.012L255.929 150.944L261.012 157.237L269.594 150.306L264.511 144.012ZM254.426 154.091V272.915H262.515V154.091H254.426ZM255.929 276.062L264.511 282.993L269.594 276.7L261.012 269.768L255.929 276.062ZM267.052 283.891H287.516V275.801H267.052V283.891ZM290.058 282.993L298.64 276.062L293.557 269.768L284.975 276.7L290.058 282.993Z" fill="url(#paint13_linear_2066_2)" mask="url(#path-14-outside-5_2066_2)"/>
</g>
<g filter="url(#filter8_d_2066_2)">
<mask id="path-16-outside-6_2066_2" maskUnits="userSpaceOnUse" x="53.8594" y="93.3564" width="170" height="241" fill="black">
<rect fill="white" x="53.8594" y="93.3564" width="170" height="241"/>
<path d="M219.465 123.394V201.29L206.922 213.833L219.465 226.375V304.271L194.38 329.356H58.3921V280.176H72.255V147.489H58.3921V98.3092H194.38L219.465 123.394ZM155.762 147.489L156.092 147.159H127.376V189.078H156.092L164.344 180.826V155.741L155.762 147.489ZM156.092 279.846L164.344 271.265V246.179L156.092 237.928H127.376V279.846H156.092Z"/>
</mask>
<path d="M219.465 123.394V201.29L206.922 213.833L219.465 226.375V304.271L194.38 329.356H58.3921V280.176H72.255V147.489H58.3921V98.3092H194.38L219.465 123.394ZM155.762 147.489L156.092 147.159H127.376V189.078H156.092L164.344 180.826V155.741L155.762 147.489ZM156.092 279.846L164.344 271.265V246.179L156.092 237.928H127.376V279.846H156.092Z" fill="url(#paint14_linear_2066_2)"/>
<path d="M219.465 123.394H223.51V121.719L222.325 120.534L219.465 123.394ZM219.465 201.29L222.325 204.15L223.51 202.966V201.29H219.465ZM206.922 213.833L204.062 210.973L201.202 213.833L204.062 216.693L206.922 213.833ZM219.465 226.375H223.51V224.7L222.325 223.515L219.465 226.375ZM219.465 304.271L222.325 307.132L223.51 305.947V304.271H219.465ZM194.38 329.356V333.401H196.055L197.24 332.217L194.38 329.356ZM58.3921 329.356H54.3472V333.401H58.3921V329.356ZM58.3921 280.176V276.131H54.3472V280.176H58.3921ZM72.255 280.176V284.221H76.2999V280.176H72.255ZM72.255 147.489H76.2999V143.444H72.255V147.489ZM58.3921 147.489H54.3472V151.534H58.3921V147.489ZM58.3921 98.3092V94.2643H54.3472V98.3092H58.3921ZM194.38 98.3092L197.24 95.449L196.055 94.2643H194.38V98.3092ZM155.762 147.489L152.902 144.629L149.985 147.546L152.958 150.405L155.762 147.489ZM156.092 147.159L158.952 150.019L165.857 143.114H156.092V147.159ZM127.376 147.159V143.114H123.331V147.159H127.376ZM127.376 189.078H123.331V193.123H127.376V189.078ZM156.092 189.078V193.123H157.768L158.952 191.938L156.092 189.078ZM164.344 180.826L167.204 183.686L168.389 182.502V180.826H164.344ZM164.344 155.741H168.389V154.019L167.147 152.825L164.344 155.741ZM156.092 279.846V283.891H157.814L159.008 282.65L156.092 279.846ZM164.344 271.265L167.26 274.068L168.389 272.894V271.265H164.344ZM164.344 246.179H168.389V244.504L167.204 243.319L164.344 246.179ZM156.092 237.928L158.952 235.068L157.768 233.883H156.092V237.928ZM127.376 237.928V233.883H123.331V237.928H127.376ZM127.376 279.846H123.331V283.891H127.376V279.846ZM215.42 123.394V201.29H223.51V123.394H215.42ZM216.605 198.43L204.062 210.973L209.783 216.693L222.325 204.15L216.605 198.43ZM204.062 216.693L216.605 229.236L222.325 223.515L209.783 210.973L204.062 216.693ZM215.42 226.375V304.271H223.51V226.375H215.42ZM216.605 301.411L191.52 326.496L197.24 332.217L222.325 307.132L216.605 301.411ZM194.38 325.312H58.3921V333.401H194.38V325.312ZM62.4371 329.356V280.176H54.3472V329.356H62.4371ZM58.3921 284.221H72.255V276.131H58.3921V284.221ZM76.2999 280.176V147.489H68.21V280.176H76.2999ZM72.255 143.444H58.3921V151.534H72.255V143.444ZM62.4371 147.489V98.3092H54.3472V147.489H62.4371ZM58.3921 102.354H194.38V94.2643H58.3921V102.354ZM191.52 101.169L216.605 126.255L222.325 120.534L197.24 95.449L191.52 101.169ZM158.622 150.349L158.952 150.019L153.232 144.299L152.902 144.629L158.622 150.349ZM156.092 143.114H127.376V151.204H156.092V143.114ZM123.331 147.159V189.078H131.421V147.159H123.331ZM127.376 193.123H156.092V185.033H127.376V193.123ZM158.952 191.938L167.204 183.686L161.484 177.966L153.232 186.218L158.952 191.938ZM168.389 180.826V155.741H160.299V180.826H168.389ZM167.147 152.825L158.566 144.574L152.958 150.405L161.54 158.657L167.147 152.825ZM159.008 282.65L167.26 274.068L161.428 268.461L153.176 277.043L159.008 282.65ZM168.389 271.265V246.179H160.299V271.265H168.389ZM167.204 243.319L158.952 235.068L153.232 240.788L161.484 249.04L167.204 243.319ZM156.092 233.883H127.376V241.973H156.092V233.883ZM123.331 237.928V279.846H131.421V237.928H123.331ZM127.376 283.891H156.092V275.801H127.376V283.891Z" fill="url(#paint15_linear_2066_2)" mask="url(#path-16-outside-6_2066_2)"/>
</g>
<defs>
<filter id="filter0_d_2066_2" x="509.285" y="293.893" width="390.861" height="166.8" filterUnits="userSpaceOnUse" color-interpolation-filters="sRGB">
<feFlood flood-opacity="0" result="BackgroundImageFix"/>
<feColorMatrix in="SourceAlpha" type="matrix" values="0 0 0 0 0 0 0 0 0 0 0 0 0 0 0 0 0 0 127 0" result="hardAlpha"/>
<feOffset dy="-16.1798"/>
<feGaussianBlur stdDeviation="13.7528"/>
<feComposite in2="hardAlpha" operator="out"/>
<feColorMatrix type="matrix" values="0 0 0 0 0 0 0 0 0 0 0 0 0 0 0 0 0 0 0.25 0"/>
<feBlend mode="normal" in2="BackgroundImageFix" result="effect1_dropShadow_2066_2"/>
<feBlend mode="normal" in="SourceGraphic" in2="effect1_dropShadow_2066_2" result="shape"/>
</filter>
<filter id="filter1_d_2066_2" x="721.838" y="61.9737" width="219.539" height="303.053" filterUnits="userSpaceOnUse" color-interpolation-filters="sRGB">
<feFlood flood-opacity="0" result="BackgroundImageFix"/>
<feColorMatrix in="SourceAlpha" type="matrix" values="0 0 0 0 0 0 0 0 0 0 0 0 0 0 0 0 0 0 127 0" result="hardAlpha"/>
<feOffset dx="20.2247"/>
<feGaussianBlur stdDeviation="15.9775"/>
<feComposite in2="hardAlpha" operator="out"/>
<feColorMatrix type="matrix" values="0 0 0 0 0 0 0 0 0 0 0 0 0 0 0 0 0 0 0.6 0"/>
<feBlend mode="normal" in2="BackgroundImageFix" result="effect1_dropShadow_2066_2"/>
<feBlend mode="normal" in="SourceGraphic" in2="effect1_dropShadow_2066_2" result="shape"/>
</filter>
<filter id="filter2_d_2066_2" x="812" y="-0.00388527" width="601.783" height="424.399" filterUnits="userSpaceOnUse" color-interpolation-filters="sRGB">
<feFlood flood-opacity="0" result="BackgroundImageFix"/>
<feColorMatrix in="SourceAlpha" type="matrix" values="0 0 0 0 0 0 0 0 0 0 0 0 0 0 0 0 0 0 127 0" result="hardAlpha"/>
<feOffset dx="-24"/>
<feGaussianBlur stdDeviation="15.9775"/>
<feComposite in2="hardAlpha" operator="out"/>
<feColorMatrix type="matrix" values="0 0 0 0 0 0 0 0 0 0 0 0 0 0 0 0 0 0 0.6 0"/>
<feBlend mode="normal" in2="BackgroundImageFix" result="effect1_dropShadow_2066_2"/>
<feBlend mode="normal" in="SourceGraphic" in2="effect1_dropShadow_2066_2" result="shape"/>
</filter>
<filter id="filter3_d_2066_2" x="515.545" y="62.3096" width="251.227" height="303.047" filterUnits="userSpaceOnUse" color-interpolation-filters="sRGB">
<feFlood flood-opacity="0" result="BackgroundImageFix"/>
<feColorMatrix in="SourceAlpha" type="matrix" values="0 0 0 0 0 0 0 0 0 0 0 0 0 0 0 0 0 0 127 0" result="hardAlpha"/>
<feOffset dx="20.2247"/>
<feGaussianBlur stdDeviation="15.9775"/>
<feComposite in2="hardAlpha" operator="out"/>
<feColorMatrix type="matrix" values="0 0 0 0 0 0 0 0 0 0 0 0 0 0 0 0 0 0 0.6 0"/>
<feBlend mode="normal" in2="BackgroundImageFix" result="effect1_dropShadow_2066_2"/>
<feBlend mode="normal" in="SourceGraphic" in2="effect1_dropShadow_2066_2" result="shape"/>
</filter>
<filter id="filter4_d_2066_2" x="1066.2" y="65.9531" width="154.846" height="303.047" filterUnits="userSpaceOnUse" color-interpolation-filters="sRGB">
<feFlood flood-opacity="0" result="BackgroundImageFix"/>
<feColorMatrix in="SourceAlpha" type="matrix" values="0 0 0 0 0 0 0 0 0 0 0 0 0 0 0 0 0 0 127 0" result="hardAlpha"/>
<feOffset dx="-16"/>
<feGaussianBlur stdDeviation="15.9775"/>
<feComposite in2="hardAlpha" operator="out"/>
<feColorMatrix type="matrix" values="0 0 0 0 0 0 0 0 0 0 0 0 0 0 0 0 0 0 0.6 0"/>
<feBlend mode="normal" in2="BackgroundImageFix" result="effect1_dropShadow_2066_2"/>
<feBlend mode="normal" in="SourceGraphic" in2="effect1_dropShadow_2066_2" result="shape"/>
</filter>
<filter id="filter5_d_2066_2" x="1149.2" y="65.9531" width="233.402" height="303.047" filterUnits="userSpaceOnUse" color-interpolation-filters="sRGB">
<feFlood flood-opacity="0" result="BackgroundImageFix"/>
<feColorMatrix in="SourceAlpha" type="matrix" values="0 0 0 0 0 0 0 0 0 0 0 0 0 0 0 0 0 0 127 0" result="hardAlpha"/>
<feOffset dx="-13"/>
<feGaussianBlur stdDeviation="15.9775"/>
<feComposite in2="hardAlpha" operator="out"/>
<feColorMatrix type="matrix" values="0 0 0 0 0 0 0 0 0 0 0 0 0 0 0 0 0 0 0.6 0"/>
<feBlend mode="normal" in2="BackgroundImageFix" result="effect1_dropShadow_2066_2"/>
<feBlend mode="normal" in="SourceGraphic" in2="effect1_dropShadow_2066_2" result="shape"/>
</filter>
<filter id="filter6_d_2066_2" x="0.769663" y="0.350607" width="582.912" height="424.971" filterUnits="userSpaceOnUse" color-interpolation-filters="sRGB">
<feFlood flood-opacity="0" result="BackgroundImageFix"/>
<feColorMatrix in="SourceAlpha" type="matrix" values="0 0 0 0 0 0 0 0 0 0 0 0 0 0 0 0 0 0 127 0" result="hardAlpha"/>
<feOffset dx="20.2247"/>
<feGaussianBlur stdDeviation="15.9775"/>
<feComposite in2="hardAlpha" operator="out"/>
<feColorMatrix type="matrix" values="0 0 0 0 0 0 0 0 0 0 0 0 0 0 0 0 0 0 0.6 0"/>
<feBlend mode="normal" in2="BackgroundImageFix" result="effect1_dropShadow_2066_2"/>
<feBlend mode="normal" in="SourceGraphic" in2="effect1_dropShadow_2066_2" result="shape"/>
</filter>
<filter id="filter7_d_2066_2" x="187.904" y="61.9737" width="219.539" height="303.053" filterUnits="userSpaceOnUse" color-interpolation-filters="sRGB">
<feFlood flood-opacity="0" result="BackgroundImageFix"/>
<feColorMatrix in="SourceAlpha" type="matrix" values="0 0 0 0 0 0 0 0 0 0 0 0 0 0 0 0 0 0 127 0" result="hardAlpha"/>
<feOffset dx="20.2247"/>
<feGaussianBlur stdDeviation="15.9775"/>
<feComposite in2="hardAlpha" operator="out"/>
<feColorMatrix type="matrix" values="0 0 0 0 0 0 0 0 0 0 0 0 0 0 0 0 0 0 0.6 0"/>
<feBlend mode="normal" in2="BackgroundImageFix" result="effect1_dropShadow_2066_2"/>
<feBlend mode="normal" in="SourceGraphic" in2="effect1_dropShadow_2066_2" result="shape"/>
</filter>
<filter id="filter8_d_2066_2" x="42.6173" y="62.3096" width="233.072" height="303.047" filterUnits="userSpaceOnUse" color-interpolation-filters="sRGB">
<feFlood flood-opacity="0" result="BackgroundImageFix"/>
<feColorMatrix in="SourceAlpha" type="matrix" values="0 0 0 0 0 0 0 0 0 0 0 0 0 0 0 0 0 0 127 0" result="hardAlpha"/>
<feOffset dx="20.2247"/>
<feGaussianBlur stdDeviation="15.9775"/>
<feComposite in2="hardAlpha" operator="out"/>
<feColorMatrix type="matrix" values="0 0 0 0 0 0 0 0 0 0 0 0 0 0 0 0 0 0 0.6 0"/>
<feBlend mode="normal" in2="BackgroundImageFix" result="effect1_dropShadow_2066_2"/>
<feBlend mode="normal" in="SourceGraphic" in2="effect1_dropShadow_2066_2" result="shape"/>
</filter>
<linearGradient id="paint0_linear_2066_2" x1="812.711" y1="-125.342" x2="694.97" y2="716.908" gradientUnits="userSpaceOnUse">
<stop offset="0.272778" stop-color="#970088"/>
<stop offset="0.493322" stop-color="white"/>
<stop offset="0.899467" stop-color="#970088"/>
</linearGradient>
<linearGradient id="paint1_linear_2066_2" x1="811.91" y1="36.3564" x2="970.81" y2="349.266" gradientUnits="userSpaceOnUse">
<stop offset="0.0439996" stop-color="#FFFCFC"/>
<stop offset="1" stop-color="#970088"/>
</linearGradient>
<linearGradient id="paint2_linear_2066_2" x1="1139.32" y1="-122.724" x2="1101.19" y2="718.46" gradientUnits="userSpaceOnUse">
<stop offset="0.272778" stop-color="#970088"/>
<stop offset="0.493322" stop-color="white"/>
<stop offset="0.899467" stop-color="#970088"/>
</linearGradient>
<linearGradient id="paint3_linear_2066_2" x1="1136.89" y1="36" x2="1198.83" y2="412.162" gradientUnits="userSpaceOnUse">
<stop offset="0.0439996" stop-color="#FFFCFC"/>
<stop offset="1" stop-color="#970088"/>
</linearGradient>
<linearGradient id="paint4_linear_2066_2" x1="622.059" y1="-125.342" x2="521.5" y2="721.425" gradientUnits="userSpaceOnUse">
<stop offset="0.272778" stop-color="#970088"/>
<stop offset="0.493322" stop-color="white"/>
<stop offset="0.899467" stop-color="#970088"/>
</linearGradient>
<linearGradient id="paint5_linear_2066_2" x1="621.117" y1="36.3564" x2="764.274" y2="368.201" gradientUnits="userSpaceOnUse">
<stop offset="0.0439996" stop-color="#FFFCFC"/>
<stop offset="1" stop-color="#970088"/>
</linearGradient>
<linearGradient id="paint6_linear_2066_2" x1="1160.5" y1="-121.698" x2="978.528" y2="696.54" gradientUnits="userSpaceOnUse">
<stop offset="0.272778" stop-color="#970088"/>
<stop offset="0.493322" stop-color="white"/>
<stop offset="0.899467" stop-color="#970088"/>
</linearGradient>
<linearGradient id="paint7_linear_2066_2" x1="1160" y1="40" x2="1352.41" y2="278.159" gradientUnits="userSpaceOnUse">
<stop offset="0.0439996" stop-color="#FFFCFC"/>
<stop offset="1" stop-color="#970088"/>
</linearGradient>
<linearGradient id="paint8_linear_2066_2" x1="1279.86" y1="-121.698" x2="1169.98" y2="722.712" gradientUnits="userSpaceOnUse">
<stop offset="0.272778" stop-color="#970088"/>
<stop offset="0.493322" stop-color="white"/>
<stop offset="0.899467" stop-color="#970088"/>
</linearGradient>
<linearGradient id="paint9_linear_2066_2" x1="1279" y1="40" x2="1431.08" y2="361.716" gradientUnits="userSpaceOnUse">
<stop offset="0.0439996" stop-color="#FFFCFC"/>
<stop offset="1" stop-color="#970088"/>
</linearGradient>
<linearGradient id="paint10_linear_2066_2" x1="274.338" y1="-122.624" x2="234.679" y2="719.783" gradientUnits="userSpaceOnUse">
<stop offset="0.272778" stop-color="#970088"/>
<stop offset="0.493322" stop-color="white"/>
<stop offset="0.899467" stop-color="#970088"/>
</linearGradient>
<linearGradient id="paint11_linear_2066_2" x1="272.001" y1="36.3564" x2="336.301" y2="412.345" gradientUnits="userSpaceOnUse">
<stop offset="0.0439996" stop-color="#FFFCFC"/>
<stop offset="1" stop-color="#970088"/>
</linearGradient>
<linearGradient id="paint12_linear_2066_2" x1="278.777" y1="-125.342" x2="161.036" y2="716.908" gradientUnits="userSpaceOnUse">
<stop offset="0.272778" stop-color="#970088"/>
<stop offset="0.493322" stop-color="white"/>
<stop offset="0.899467" stop-color="#970088"/>
</linearGradient>
<linearGradient id="paint13_linear_2066_2" x1="277.977" y1="36.3564" x2="436.877" y2="349.266" gradientUnits="userSpaceOnUse">
<stop offset="0.0439996" stop-color="#FFFCFC"/>
<stop offset="1" stop-color="#970088"/>
</linearGradient>
<linearGradient id="paint14_linear_2066_2" x1="139.719" y1="-125.342" x2="29.8386" y2="719.069" gradientUnits="userSpaceOnUse">
<stop offset="0.272778" stop-color="#970088"/>
<stop offset="0.493322" stop-color="white"/>
<stop offset="0.899467" stop-color="#970088"/>
</linearGradient>
<linearGradient id="paint15_linear_2066_2" x1="138.859" y1="36.3564" x2="290.934" y2="358.072" gradientUnits="userSpaceOnUse">
<stop offset="0.0439996" stop-color="#FFFCFC"/>
<stop offset="1" stop-color="#970088"/>
</linearGradient>
</defs>
</svg>
